<?xml version="1.0" encoding="utf-8"?>
<!-- Svg Vector Icons : http://www.onlinewebfonts.com/icon -->
<!DOCTYPE svg PUBLIC "-//W3C//DTD SVG 1.1//EN" "http://www.w3.org/Graphics/SVG/1.1/DTD/svg11.dtd">
<svg version="1.1" xmlns="http://www.w3.org/2000/svg" xmlns:xlink="http://www.w3.org/1999/xlink" x="0px" y="0px" viewBox="0 0 1000 1000" enable-background="new 0 0 1000 1000" xml:space="preserve">
<metadata> Svg Vector Icons : http://www.onlinewebfonts.com/icon </metadata>
<g><g transform="translate(0.000000,511.000000) scale(0.100000,-0.100000)"><path d="M4326.6,4999.3c-1265-122.6-2466.7-721.4-3012.4-1500.1c-120.6-171.7-320.9-572.2-396.5-795c-114.5-345.4-141-521.1-141-964.6c0-363.8,6.1-437.3,55.2-668.3c63.4-296.3,128.8-515,239.1-795C1171.2,25,1226.3-85.4,1459.3-508.4c237.1-431.2,635.6-1242.6,696.9-1420.4c38.8-108.3,49-188,55.2-433.3c12.3-463.9-55.2-729.6-388.3-1528.7c-102.2-241.1-202.3-488.4-224.8-547.7c-51.1-139-36.8-228.9,47-298.4l63.4-53.1h2133.6c2331.8,0,2225.6-6.1,2272.6,116.5c12.3,30.7,24.6,155.3,30.7,275.9c6.2,194.2,14.3,233,71.5,347.4c106.3,214.6,192.1,245.2,803.2,282c596.7,32.7,803.2,92,1007.6,286.1c220.7,208.5,310.6,541.6,261.6,974.8l-24.5,220.7l92,77.7c116.5,100.2,149.2,198.2,112.4,331.1l-26.6,92l96.1,87.9c116.5,108.3,118.5,143,20.4,349.5c-40.9,85.8-79.7,196.2-83.8,245.2c-12.3,106.3,6.2,122.6,167.6,145.1c265.7,38.8,486.4,149.2,551.8,273.8c92,179.9-26.6,423.1-523.2,1079.1c-126.7,165.5-257.5,359.7-290.2,431.2L8320,958.9l26.6,322.9c14.3,177.8,18.4,382.2,12.2,451.7c-24.5,218.7-145.1,739.8-212.6,911.5c-8.2,24.5,2.1,22.5,49.1-10.2c155.3-108.3,316.8-59.3,361.7,112.4c32.7,132.8-200.3,678.5-410.8,958.5c-255.4,337.2-627.4,584.5-1054.5,701c-87.9,24.5-206.4,71.5-265.7,106.3c-347.4,206.4-895.2,380.1-1432.6,455.7C5131.8,5007.5,4567.8,5021.8,4326.6,4999.3z M6513.3,3936.6c73.6-22.5,153.3-57.2,177.8-77.7c40.9-32.7,44.9-49.1,30.7-118.5c-22.5-110.4-18.4-122.6,77.6-218.7c47-47,106.3-112.4,132.8-143.1c42.9-51.1,55.2-55.2,134.9-45c67.4,10.2,96,6.1,120.5-20.4c65.4-63.4,141-416.9,102.2-474.1c-10.2-14.3-53.1-36.8-96-51.1c-89.9-30.7-89.9-28.6-163.5-257.5l-55.2-169.6l53.1-61.3c79.7-96,67.4-134.9-89.9-288.2c-175.7-171.7-222.8-186-320.8-98.1c-47,40.9-85.9,59.3-108.3,51.1c-18.4-8.2-96.1-26.6-175.8-42.9c-181.9-38.8-196.2-47-224.8-130.8c-12.3-36.8-40.9-73.6-63.4-81.7c-55.2-20.4-280,30.7-382.2,85.8c-83.8,47-85.8,49-85.8,161.5c0,108.3-4.1,114.4-132.8,259.5l-130.8,147.1l-94-12.3c-67.5-8.2-100.1-4.1-116.5,14.3c-44.9,55.2-98.1,255.5-98.1,374c0,126.7,10.2,143.1,118.5,165.5c59.3,12.3,63.4,16.3,132.8,239.1c55.2,169.6,55.2,204.4,4.1,251.4c-59.3,53.1-49.1,130.8,26.6,216.6c83.8,96,253.4,222.8,296.3,222.8c18.4,0,61.3-28.6,96.1-61.3l63.3-61.3l161.4,40.9c87.9,22.5,177.8,40.9,198.2,40.9c26.6,0,51.1,30.7,77.7,92c36.8,85.8,44.9,92,120.6,92C6343.7,3977.5,6439.8,3959.1,6513.3,3936.6z M2986,3252c153.3-47,251.4-108.3,251.4-157.4c0-12.3-10.2-57.2-22.5-100.1l-24.5-77.7l161.5-175.8l161.5-175.8l106.3,12.3c96,12.3,108.3,8.2,136.9-34.7c53.1-81.7,96.1-226.8,108.3-367.9c14.3-159.4-4.1-192.1-108.3-212.5c-87.9-16.3-110.4-47-153.3-200.3c-20.4-67.4-47-163.5-61.3-210.5c-26.6-83.8-24.5-89.9,28.6-145.1c30.7-30.7,55.2-79.7,55.2-106.3c0-98.1-306.6-388.3-412.8-388.3c-28.6,0-73.6,26.6-110.4,63.4c-49,51.1-69.5,61.3-120.6,51.1c-32.7-8.2-139-28.6-235-49.1l-173.7-36.8l-32.7-87.9c-18.4-49-47-98.1-67.4-108.3c-73.6-40.9-453.7,73.6-519.1,157.4c-34.8,42.9-36.8,63.4-18.4,143.1l20.4,92l-110.4,116.5c-61.3,65.4-128.8,141-147.1,169.6c-30.7,45-51.1,51.1-163.5,51.1c-126.7,0-126.7,0-163.5,75.6c-20.4,42.9-53.1,153.3-71.5,243.2c-38.8,200.3-18.4,259.5,98.1,290.2c100.1,24.5,116.5,45,141,155.3c12.3,55.2,40.9,147.1,63.4,206.4c45,116.5,51.1,96.1-55.2,241.1c-32.7,45-32.7,53.1,4.1,120.6c47,85.8,237.1,263.6,331.1,308.6c63.3,30.7,71.5,30.7,124.7-12.3c136.9-110.4,126.7-108.3,267.7-65.4c69.5,22.5,157.4,40.9,192.1,40.9c87.9,0,108.3,16.3,155.3,128.8c38.8,92,45,96.1,122.6,96.1C2789.8,3303.1,2898.1,3280.6,2986,3252z M5336.2,1878.6c75.6-36.8,77.7-38.8,79.7-159.4c2-67.4,4.1-132.8,6.1-147.2c2.1-26.6,296.3-190.1,339.3-190.1c16.3,0,59.3,26.6,96,59.3c106.3,92,143,94,241.2,18.4c110.4-83.8,243.2-273.9,245.3-347.4c0-40.9-24.6-73.6-94-130.8c-104.3-85.8-102.2-79.7-34.8-308.6c20.4-71.5,47-136.9,59.3-149.2c12.2-12.3,69.5-26.6,126.7-34.8c157.4-18.4,173.7-47,163.5-275.9c-6.1-124.7-20.4-212.5-42.9-255.4c-34.7-63.3-38.8-65.4-181.9-71.5l-149.2-6.1L6125-242.7c-126.7-228.9-122.6-202.3-40.9-308.6c42.9-53.1,75.6-116.5,75.6-143.1c0-53.1-141-206.4-263.6-282c-124.7-79.7-179.9-71.5-280,40.9l-81.7,96.1l-130.8-42.9c-71.5-24.5-145.1-45-161.5-45c-63.3,0-89.9-38.8-106.3-155.3c-22.5-163.5-47-181.9-241.2-179.8c-186,2.1-341.3,49.1-359.7,112.4c-8.2,22.5-8.2,85.8,0,139c10.2,77.7,6.1,106.3-20.4,132.8c-18.4,18.4-42.9,32.7-55.2,32.7c-12.3,0-67.4,28.6-122.6,61.3c-124.7,77.7-167.6,77.7-255.5,0c-106.3-94-163.5-83.8-296.3,57.2c-120.6,124.7-179.8,220.7-179.8,288.2c0,22.5,38.8,73.6,92,118.6c51.1,40.9,92,89.9,92,108.3c-2,16.3-22.5,104.2-49.1,192.1c-51.1,175.8-69.5,192.1-200.3,194.1c-122.6,2.1-159.4,55.2-159.4,222.8c0,147.2,45,339.3,87.9,365.8c12.3,8.2,83.8,16.3,157.4,16.3c126.7,0,134.9,2.1,163.5,61.3c16.3,34.7,55.2,104.2,87.9,157.4c30.7,53.1,55.2,104.2,55.2,114.4s-32.7,59.3-71.5,108.3c-38.8,49-71.5,106.3-71.5,128.8c0,20.4,28.6,71.5,61.3,114.4c67.4,85.8,290.2,245.2,341.3,245.2c18.4,0,77.7-45,132.8-102.2c55.2-55.2,104.2-102.2,106.3-102.2c4.1,0,40.9,14.3,81.7,30.7c38.8,16.3,118.5,40.9,175.8,53.1c79.7,16.3,104.2,30.7,110.4,65.4c6.1,24.5,16.4,85.8,26.6,136.9c22.5,124.7,71.5,147.2,275.9,136.9C5195.2,1921.5,5291.2,1903.1,5336.2,1878.6z"/><path d="M5967.7,3333.7c-118.6-45-208.5-122.6-271.8-230.9c-49-83.8-57.2-118.5-57.2-259.6c0-143.1,8.2-175.8,57.2-261.6c210.5-357.6,721.4-339.3,919.6,34.7c61.3,116.5,61.3,337.2,0,453.7c-55.2,102.2-153.3,200.3-249.3,245.2C6268.1,3364.4,6069.9,3372.5,5967.7,3333.7z"/><path d="M2393.3,2579.6c-188-67.4-335.2-222.8-384.2-410.8c-53.1-190.1,26.6-449.6,177.8-582.5c118.5-104.2,222.8-143.1,388.3-143.1c122.6,0,165.5,10.2,271.8,63.4c361.7,181.9,425.1,674.4,122.6,946.2C2808.2,2598,2583.3,2647,2393.3,2579.6z"/><path d="M4819.1,995.7c-300.4-77.7-519.1-353.6-519.1-654c0-271.8,132.8-490.5,374-613.1c120.6-61.3,157.4-71.5,296.3-71.5c139-2,175.8,6.1,294.3,65.4c165.5,81.7,284.1,208.5,345.4,369.9c59.3,159.4,49.1,396.5-26.6,543.6c-65.4,124.7-210.5,265.7-335.1,318.8C5148.2,999.8,4917.2,1022.3,4819.1,995.7z"/></g></g>
</svg>